<?xml version="1.0" encoding="UTF-8"?>
<svg width="36px" height="36px" viewBox="0 0 36 36" version="1.1" xmlns="http://www.w3.org/2000/svg" xmlns:xlink="http://www.w3.org/1999/xlink">
    <!-- Generator: Sketch 43.1 (39012) - http://www.bohemiancoding.com/sketch -->
    <title>iconfinder_mailru_386659</title>
    <desc>Created with Sketch.</desc>
    <defs></defs>
    <g id="Page-1" stroke="none" stroke-width="1" fill="none" fill-rule="evenodd">
        <g id="iconfinder_mailru_386659" fill-rule="nonzero">
            <rect id="rect2987" fill="#168DE2" x="0" y="3.99680289e-15" width="36" height="36" rx="18"></rect>
            <path d="M22.8572037,17.8711418 C22.6975556,14.7622704 20.389133,12.8923509 17.6014589,12.8923509 L17.4965027,12.8923509 C14.2796137,12.8923509 12.4958475,15.4219767 12.4958475,18.295702 C12.4958475,21.5126937 14.6538176,23.5450146 17.4843584,23.5450146 C20.6391572,23.5450146 22.714129,21.2335305 22.8642729,18.4999113 L22.8571833,17.8711418 L22.8572037,17.8711418 Z M17.5121304,10.1095256 C19.661542,10.1095256 21.682767,11.0596971 23.1663586,12.5475019 L23.1663586,12.5530495 C23.1663586,11.8390823 23.6470901,11.3005863 24.3141841,11.3005863 L24.4831205,11.2994543 C25.526411,11.2994543 25.7412755,12.287108 25.7412755,12.5995402 L25.7460005,23.7031601 C25.672197,24.4304325 26.4964015,24.8058998 26.9530594,24.3389981 C28.7362912,22.506653 30.8690269,14.9191516 25.8446166,10.5239313 C21.1620959,6.4252973 14.8789962,7.10041359 11.5375162,9.40376531 C7.98497367,11.8536806 5.71234873,17.276677 7.92015117,22.3697123 C10.3271899,27.9244807 17.2143485,29.581335 21.3079036,27.9284885 C23.3806662,27.0919343 24.337691,29.893654 22.185012,30.8092922 C18.9326461,32.1944759 9.87887602,32.0546791 5.6498388,24.7284007 C2.79236834,19.7819135 2.9437863,11.0783665 10.5228415,6.56931909 C16.3201345,3.11877239 23.964023,4.07379663 28.5730594,8.88724969 C33.3908353,13.9192537 33.1093505,23.3425828 28.4107809,27.005568 C26.2815279,28.6702305 23.1189202,27.0507558 23.1388734,24.6254484 L23.1172249,23.8326033 C21.634702,25.3036287 19.6615111,26.1619348 17.5120995,26.1619348 C13.2653285,26.1619348 9.52843781,22.4262049 9.52843781,18.1786936 C9.52843781,13.89033 13.2653285,10.1095052 17.5120995,10.1095052 L17.5120995,10.1095052 L17.5121304,10.1095256 Z" id="path24_3_" fill="#FFFFFF"></path>
        </g>
    </g>
</svg>